<svg xmlns="http://www.w3.org/2000/svg" xmlns:xlink="http://www.w3.org/1999/xlink" width="500" zoomAndPan="magnify" viewBox="0 0 375 374.999991" height="500" preserveAspectRatio="xMidYMid meet" version="1.0"><defs><g/><clipPath id="483cfe47f8"><path d="M 37.5 150.589844 L 117 150.589844 L 117 213 L 37.5 213 Z M 37.5 150.589844 " clip-rule="nonzero"/></clipPath><clipPath id="aa96820eaa"><path d="M 37.5 179 L 96 179 L 96 237.589844 L 37.5 237.589844 Z M 37.5 179 " clip-rule="nonzero"/></clipPath></defs><g fill="#6431f2" fill-opacity="1"><g transform="translate(143.860821, 207.332168)"><g><path d="M 23.4375 -18.6875 C 23.4375 -17.09375 23.070312 -15.632812 22.34375 -14.3125 C 21.613281 -12.988281 20.488281 -11.921875 18.96875 -11.109375 C 17.445312 -10.296875 15.5625 -9.890625 13.3125 -9.890625 L 9.15625 -9.890625 L 9.15625 0 L 2.4375 0 L 2.4375 -27.5625 L 13.3125 -27.5625 C 15.507812 -27.5625 17.367188 -27.179688 18.890625 -26.421875 C 20.410156 -25.660156 21.546875 -24.613281 22.296875 -23.28125 C 23.054688 -21.945312 23.4375 -20.414062 23.4375 -18.6875 Z M 12.796875 -15.234375 C 14.078125 -15.234375 15.03125 -15.535156 15.65625 -16.140625 C 16.289062 -16.742188 16.609375 -17.59375 16.609375 -18.6875 C 16.609375 -19.789062 16.289062 -20.640625 15.65625 -21.234375 C 15.03125 -21.835938 14.078125 -22.140625 12.796875 -22.140625 L 9.15625 -22.140625 L 9.15625 -15.234375 Z M 12.796875 -15.234375 "/></g></g></g><g fill="#6431f2" fill-opacity="1"><g transform="translate(168.357745, 207.332168)"><g><path d="M 9.15625 -29.0625 L 9.15625 0 L 2.4375 0 L 2.4375 -29.0625 Z M 9.15625 -29.0625 "/></g></g></g><g fill="#6431f2" fill-opacity="1"><g transform="translate(179.938822, 207.332168)"><g><path d="M 1.09375 -11 C 1.09375 -13.25 1.519531 -15.222656 2.375 -16.921875 C 3.226562 -18.617188 4.382812 -19.925781 5.84375 -20.84375 C 7.3125 -21.757812 8.953125 -22.21875 10.765625 -22.21875 C 12.304688 -22.21875 13.65625 -21.90625 14.8125 -21.28125 C 15.976562 -20.65625 16.878906 -19.832031 17.515625 -18.8125 L 17.515625 -21.90625 L 24.234375 -21.90625 L 24.234375 0 L 17.515625 0 L 17.515625 -3.109375 C 16.859375 -2.085938 15.945312 -1.257812 14.78125 -0.625 C 13.613281 0 12.257812 0.3125 10.71875 0.3125 C 8.9375 0.3125 7.3125 -0.148438 5.84375 -1.078125 C 4.382812 -2.003906 3.226562 -3.328125 2.375 -5.046875 C 1.519531 -6.765625 1.09375 -8.75 1.09375 -11 Z M 17.515625 -10.953125 C 17.515625 -12.628906 17.046875 -13.953125 16.109375 -14.921875 C 15.179688 -15.890625 14.050781 -16.375 12.71875 -16.375 C 11.382812 -16.375 10.253906 -15.894531 9.328125 -14.9375 C 8.398438 -13.976562 7.9375 -12.664062 7.9375 -11 C 7.9375 -9.320312 8.398438 -7.988281 9.328125 -7 C 10.253906 -6.019531 11.382812 -5.53125 12.71875 -5.53125 C 14.050781 -5.53125 15.179688 -6.015625 16.109375 -6.984375 C 17.046875 -7.953125 17.515625 -9.273438 17.515625 -10.953125 Z M 17.515625 -10.953125 "/></g></g></g><g fill="#6431f2" fill-opacity="1"><g transform="translate(206.594925, 207.332168)"><g><path d="M 24.8125 -21.90625 L 11.078125 10.40625 L 3.84375 10.40625 L 8.875 -0.75 L -0.046875 -21.90625 L 7.453125 -21.90625 L 12.53125 -8.203125 L 17.546875 -21.90625 Z M 24.8125 -21.90625 "/></g></g></g><g fill="#6431f2" fill-opacity="1"><g transform="translate(231.405909, 207.332168)"><g><path d="M 28.3125 -27.5625 L 18.53125 0 L 10.125 0 L 0.359375 -27.5625 L 7.5 -27.5625 L 14.328125 -6.75 L 21.203125 -27.5625 Z M 28.3125 -27.5625 "/></g></g></g><g fill="#6431f2" fill-opacity="1"><g transform="translate(260.064167, 207.332168)"><g><path d="M 23.09375 -11.3125 C 23.09375 -10.675781 23.050781 -10.019531 22.96875 -9.34375 L 7.78125 -9.34375 C 7.882812 -7.976562 8.320312 -6.9375 9.09375 -6.21875 C 9.863281 -5.5 10.8125 -5.140625 11.9375 -5.140625 C 13.613281 -5.140625 14.78125 -5.847656 15.4375 -7.265625 L 22.578125 -7.265625 C 22.210938 -5.828125 21.550781 -4.53125 20.59375 -3.375 C 19.632812 -2.226562 18.4375 -1.328125 17 -0.671875 C 15.5625 -0.015625 13.953125 0.3125 12.171875 0.3125 C 10.023438 0.3125 8.113281 -0.144531 6.4375 -1.0625 C 4.757812 -1.976562 3.445312 -3.285156 2.5 -4.984375 C 1.5625 -6.679688 1.09375 -8.671875 1.09375 -10.953125 C 1.09375 -13.234375 1.554688 -15.222656 2.484375 -16.921875 C 3.421875 -18.617188 4.722656 -19.925781 6.390625 -20.84375 C 8.066406 -21.757812 9.992188 -22.21875 12.171875 -22.21875 C 14.296875 -22.21875 16.179688 -21.769531 17.828125 -20.875 C 19.472656 -19.988281 20.757812 -18.722656 21.6875 -17.078125 C 22.625 -15.429688 23.09375 -13.507812 23.09375 -11.3125 Z M 16.21875 -13.078125 C 16.21875 -14.222656 15.820312 -15.132812 15.03125 -15.8125 C 14.25 -16.5 13.269531 -16.84375 12.09375 -16.84375 C 10.96875 -16.84375 10.019531 -16.515625 9.25 -15.859375 C 8.476562 -15.203125 8 -14.273438 7.8125 -13.078125 Z M 16.21875 -13.078125 "/></g></g></g><g fill="#6431f2" fill-opacity="1"><g transform="translate(284.247019, 207.332168)"><g><path d="M 9.15625 -18.265625 C 9.9375 -19.460938 10.914062 -20.40625 12.09375 -21.09375 C 13.269531 -21.789062 14.578125 -22.140625 16.015625 -22.140625 L 16.015625 -15.03125 L 14.171875 -15.03125 C 12.492188 -15.03125 11.238281 -14.671875 10.40625 -13.953125 C 9.570312 -13.234375 9.15625 -11.972656 9.15625 -10.171875 L 9.15625 0 L 2.4375 0 L 2.4375 -21.90625 L 9.15625 -21.90625 Z M 9.15625 -18.265625 "/></g></g></g><g fill="#6431f2" fill-opacity="1"><g transform="translate(301.049394, 207.332168)"><g><path d="M 11.34375 0.3125 C 9.4375 0.3125 7.734375 -0.015625 6.234375 -0.671875 C 4.742188 -1.328125 3.566406 -2.222656 2.703125 -3.359375 C 1.835938 -4.492188 1.351562 -5.769531 1.25 -7.1875 L 7.890625 -7.1875 C 7.972656 -6.425781 8.328125 -5.8125 8.953125 -5.34375 C 9.578125 -4.875 10.347656 -4.640625 11.265625 -4.640625 C 12.109375 -4.640625 12.757812 -4.800781 13.21875 -5.125 C 13.675781 -5.445312 13.90625 -5.875 13.90625 -6.40625 C 13.90625 -7.03125 13.578125 -7.492188 12.921875 -7.796875 C 12.265625 -8.097656 11.203125 -8.429688 9.734375 -8.796875 C 8.160156 -9.160156 6.847656 -9.546875 5.796875 -9.953125 C 4.753906 -10.359375 3.851562 -11 3.09375 -11.875 C 2.34375 -12.75 1.96875 -13.9375 1.96875 -15.4375 C 1.96875 -16.6875 2.3125 -17.828125 3 -18.859375 C 3.695312 -19.898438 4.71875 -20.71875 6.0625 -21.3125 C 7.414062 -21.914062 9.019531 -22.21875 10.875 -22.21875 C 13.625 -22.21875 15.789062 -21.535156 17.375 -20.171875 C 18.957031 -18.816406 19.867188 -17.015625 20.109375 -14.765625 L 13.90625 -14.765625 C 13.800781 -15.523438 13.460938 -16.125 12.890625 -16.5625 C 12.328125 -17.007812 11.59375 -17.234375 10.6875 -17.234375 C 9.894531 -17.234375 9.289062 -17.082031 8.875 -16.78125 C 8.457031 -16.476562 8.25 -16.066406 8.25 -15.546875 C 8.25 -14.921875 8.582031 -14.453125 9.25 -14.140625 C 9.914062 -13.828125 10.957031 -13.507812 12.375 -13.1875 C 13.988281 -12.769531 15.304688 -12.359375 16.328125 -11.953125 C 17.347656 -11.546875 18.242188 -10.890625 19.015625 -9.984375 C 19.796875 -9.085938 20.195312 -7.878906 20.21875 -6.359375 C 20.21875 -5.078125 19.859375 -3.929688 19.140625 -2.921875 C 18.421875 -1.910156 17.382812 -1.117188 16.03125 -0.546875 C 14.6875 0.0234375 13.125 0.3125 11.34375 0.3125 Z M 11.34375 0.3125 "/></g></g></g><g fill="#6431f2" fill-opacity="1"><g transform="translate(322.955295, 207.332168)"><g><path d="M 23.09375 -11.3125 C 23.09375 -10.675781 23.050781 -10.019531 22.96875 -9.34375 L 7.78125 -9.34375 C 7.882812 -7.976562 8.320312 -6.9375 9.09375 -6.21875 C 9.863281 -5.5 10.8125 -5.140625 11.9375 -5.140625 C 13.613281 -5.140625 14.78125 -5.847656 15.4375 -7.265625 L 22.578125 -7.265625 C 22.210938 -5.828125 21.550781 -4.53125 20.59375 -3.375 C 19.632812 -2.226562 18.4375 -1.328125 17 -0.671875 C 15.5625 -0.015625 13.953125 0.3125 12.171875 0.3125 C 10.023438 0.3125 8.113281 -0.144531 6.4375 -1.0625 C 4.757812 -1.976562 3.445312 -3.285156 2.5 -4.984375 C 1.5625 -6.679688 1.09375 -8.671875 1.09375 -10.953125 C 1.09375 -13.234375 1.554688 -15.222656 2.484375 -16.921875 C 3.421875 -18.617188 4.722656 -19.925781 6.390625 -20.84375 C 8.066406 -21.757812 9.992188 -22.21875 12.171875 -22.21875 C 14.296875 -22.21875 16.179688 -21.769531 17.828125 -20.875 C 19.472656 -19.988281 20.757812 -18.722656 21.6875 -17.078125 C 22.625 -15.429688 23.09375 -13.507812 23.09375 -11.3125 Z M 16.21875 -13.078125 C 16.21875 -14.222656 15.820312 -15.132812 15.03125 -15.8125 C 14.25 -16.5 13.269531 -16.84375 12.09375 -16.84375 C 10.96875 -16.84375 10.019531 -16.515625 9.25 -15.859375 C 8.476562 -15.203125 8 -14.273438 7.8125 -13.078125 Z M 16.21875 -13.078125 "/></g></g></g><g clip-path="url(#483cfe47f8)"><path fill="#9774f7" d="M 44.945312 152.644531 C 42.609375 153.984375 40.761719 155.851562 39.472656 158.058594 C 38.1875 160.289062 37.5 162.824219 37.5 165.523438 L 37.5 191.3125 C 37.5 193.996094 38.1875 196.53125 39.472656 198.757812 C 40.761719 200.96875 42.609375 202.832031 44.945312 204.191406 L 58.511719 212.035156 C 60.539062 213.210938 63.109375 212.523438 64.289062 210.496094 C 65.464844 208.464844 64.777344 205.894531 62.75 204.71875 L 49.183594 196.875 L 49.164062 196.875 C 48.132812 196.277344 47.316406 195.480469 46.792969 194.554688 C 46.265625 193.632812 45.976562 192.527344 45.976562 191.3125 L 45.976562 165.523438 C 45.976562 164.308594 46.265625 163.203125 46.792969 162.296875 L 46.792969 162.28125 C 47.316406 161.355469 48.132812 160.558594 49.183594 159.960938 C 50.214844 159.363281 51.300781 159.074219 52.386719 159.074219 C 53.476562 159.074219 54.578125 159.363281 55.59375 159.960938 L 80.425781 174.308594 L 80.445312 174.308594 L 105.292969 188.632812 C 106.328125 189.230469 107.125 190.027344 107.667969 190.96875 C 108.191406 191.894531 108.480469 192.980469 108.480469 194.210938 C 108.480469 195.351562 108.226562 196.402344 107.777344 197.273438 C 107.738281 197.328125 107.703125 197.382812 107.683594 197.4375 C 107.140625 198.378906 106.328125 199.191406 105.3125 199.773438 C 103.285156 200.933594 102.59375 203.523438 103.753906 205.53125 C 104.914062 207.5625 107.503906 208.25 109.515625 207.089844 C 111.867188 205.730469 113.734375 203.867188 115.003906 201.675781 C 115.058594 201.582031 115.109375 201.492188 115.148438 201.382812 C 116.34375 199.230469 116.976562 196.785156 116.976562 194.195312 C 116.976562 191.511719 116.289062 188.976562 115.003906 186.75 L 115.003906 186.730469 C 113.734375 184.539062 111.867188 182.675781 109.515625 181.316406 L 84.699219 166.988281 L 59.832031 152.644531 C 57.476562 151.285156 54.941406 150.597656 52.386719 150.597656 C 49.851562 150.597656 47.316406 151.285156 44.945312 152.644531 Z M 44.945312 152.644531 " fill-opacity="1" fill-rule="evenodd"/></g><g clip-path="url(#aa96820eaa)"><path fill="#7543ff" d="M 37.5 216.597656 L 37.5 222.882812 C 37.5 225.5625 38.1875 228.101562 39.472656 230.328125 C 40.761719 232.554688 42.609375 234.421875 44.945312 235.761719 C 45.035156 235.816406 45.125 235.871094 45.214844 235.90625 C 47.496094 237.175781 49.941406 237.808594 52.386719 237.808594 C 54.925781 237.808594 57.460938 237.121094 59.8125 235.761719 L 87.671875 219.695312 C 90.027344 218.335938 91.890625 216.472656 93.160156 214.28125 L 93.160156 214.261719 C 94.445312 212.035156 95.132812 209.5 95.132812 206.816406 C 95.132812 204.136719 94.445312 201.601562 93.160156 199.375 C 91.871094 197.164062 90.027344 195.300781 87.671875 193.941406 L 63.128906 179.777344 C 62.457031 179.394531 61.753906 179.214844 61.027344 179.214844 C 59.5625 179.214844 58.148438 179.976562 57.371094 181.335938 C 56.210938 183.363281 56.898438 185.933594 58.925781 187.09375 L 83.46875 201.257812 C 84.5 201.855469 85.316406 202.652344 85.839844 203.574219 C 86.367188 204.5 86.65625 205.605469 86.65625 206.816406 C 86.65625 208.03125 86.367188 209.136719 85.839844 210.042969 C 85.296875 210.984375 84.484375 211.800781 83.46875 212.378906 L 55.613281 228.445312 C 54.578125 229.042969 53.492188 229.332031 52.386719 229.332031 C 51.355469 229.332031 50.324219 229.078125 49.34375 228.554688 C 49.292969 228.515625 49.238281 228.480469 49.183594 228.445312 C 48.132812 227.828125 47.316406 227.03125 46.792969 226.125 C 46.265625 225.203125 45.976562 224.097656 45.976562 222.882812 L 45.976562 216.597656 C 45.976562 214.261719 44.074219 212.359375 41.738281 212.359375 C 39.402344 212.359375 37.5 214.246094 37.5 216.597656 Z M 37.5 216.597656 " fill-opacity="1" fill-rule="evenodd"/></g></svg>